<svg width="186" height="123" viewBox="0 0 186 123" fill="none" xmlns="http://www.w3.org/2000/svg">
<rect width="186" height="123" fill="#212529"/>
<path d="M152.062 108.791C165.651 108.791 176.667 101.109 176.667 91.6322C176.667 82.1558 165.651 74.4737 152.062 74.4737C138.473 74.4737 127.457 82.1558 127.457 91.6322C127.457 101.109 138.473 108.791 152.062 108.791Z" fill="#0D6EFD"/>
<path d="M151.839 122.662L152.041 91.5377" stroke="#3F3D56" stroke-width="0.988338" stroke-miterlimit="10"/>
<path d="M152.041 95.9392C155.526 95.9392 158.352 93.9686 158.352 91.5377C158.352 89.1068 155.526 87.1362 152.041 87.1362C148.555 87.1362 145.729 89.1068 145.729 91.5377C145.729 93.9686 148.555 95.9392 152.041 95.9392Z" fill="#3F3D56"/>
<path d="M151.916 110.72C151.916 110.72 151.102 97.1939 132.608 98.7076L151.916 110.72Z" fill="#3F3D56"/>
<path d="M48.9896 74.3416C62.5784 74.3416 73.5943 66.6594 73.5943 57.1831C73.5943 47.7067 62.5784 40.0245 48.9896 40.0245C35.4008 40.0245 24.3849 47.7067 24.3849 57.1831C24.3849 66.6594 35.4008 74.3416 48.9896 74.3416Z" fill="#0D6EFD"/>
<path d="M47.5963 120.528L49.0124 57.1641" stroke="#3F3D56" stroke-width="0.988338" stroke-miterlimit="10"/>
<path d="M49.0125 61.5656C52.4983 61.5656 55.3241 59.595 55.3241 57.1641C55.3241 54.7332 52.4983 52.7626 49.0125 52.7626C45.5267 52.7626 42.7009 54.7332 42.7009 57.1641C42.7009 59.595 45.5267 61.5656 49.0125 61.5656Z" fill="#3F3D56"/>
<path d="M48.6119 75.0873C48.6119 75.0873 48.0126 61.5553 29.4957 62.9262L48.6119 75.0873Z" fill="#3F3D56"/>
<path d="M101.902 36.2488C115.491 36.2488 126.506 28.5667 126.506 19.0903C126.506 9.61392 115.491 1.93179 101.902 1.93179C88.313 1.93179 77.2971 9.61392 77.2971 19.0903C77.2971 28.5667 88.313 36.2488 101.902 36.2488Z" fill="#0D6EFD"/>
<path d="M101.917 122.971V19.1533" stroke="#3F3D56" stroke-width="0.988338" stroke-miterlimit="10"/>
<path d="M101.917 23.5057C105.403 23.5057 108.229 21.5351 108.229 19.1042C108.229 16.6733 105.403 14.7027 101.917 14.7027C98.4314 14.7027 95.6056 16.6733 95.6056 19.1042C95.6056 21.5351 98.4314 23.5057 101.917 23.5057Z" fill="#3F3D56"/>
<path d="M82.5316 98.6186C86.0174 98.6186 88.8432 96.648 88.8432 94.2171C88.8432 91.7862 86.0174 89.8156 82.5316 89.8156C79.0458 89.8156 76.22 91.7862 76.22 94.2171C76.22 96.648 79.0458 98.6186 82.5316 98.6186Z" fill="#3F3D56"/>
<path d="M101.917 41.5872C101.917 41.5872 101.016 28.0634 82.5316 29.6354L101.917 41.5872Z" fill="#3F3D56"/>
<path d="M101.917 79.9258C101.917 79.9258 101.016 66.402 82.5316 67.9739L101.917 79.9258Z" fill="#3F3D56"/>
<path d="M101.917 121.762C101.917 121.762 105.975 95.4746 82.5316 94.2171" stroke="#3F3D56" stroke-width="0.988338" stroke-miterlimit="10"/>
<path d="M121.69 57.3309C125.176 57.3309 128.002 55.3602 128.002 52.9294C128.002 50.4985 125.176 48.5279 121.69 48.5279C118.204 48.5279 115.378 50.4985 115.378 52.9294C115.378 55.3602 118.204 57.3309 121.69 57.3309Z" fill="#3F3D56"/>
<path d="M102.304 79.0717C102.304 79.0717 98.2469 54.1869 121.69 52.9294" stroke="#3F3D56" stroke-width="0.988338" stroke-miterlimit="10"/>
<path d="M154.54 42.9874C152.79 42.9874 151.079 42.6255 149.624 41.9476C148.17 41.2697 147.036 40.3061 146.366 39.1788C145.696 38.0515 145.521 36.811 145.863 35.6142C146.204 34.4174 147.047 33.3181 148.284 32.4553C149.521 31.5925 151.097 31.0049 152.814 30.7668C154.53 30.5288 156.309 30.651 157.925 31.1179C159.542 31.5849 160.923 32.3756 161.895 33.3902C162.868 34.4048 163.386 35.5976 163.386 36.8178C163.384 38.4535 162.451 40.0217 160.792 41.1783C159.134 42.3349 156.885 42.9855 154.54 42.9874ZM154.54 31.2092C152.949 31.2092 151.394 31.5381 150.071 32.1544C148.749 32.7707 147.718 33.6466 147.109 34.6715C146.5 35.6963 146.341 36.824 146.651 37.912C146.962 39 147.728 39.9994 148.853 40.7838C149.977 41.5681 151.41 42.1023 152.97 42.3187C154.531 42.5351 156.148 42.4241 157.617 41.9996C159.087 41.5751 160.343 40.8562 161.227 39.9338C162.11 39.0115 162.582 37.9271 162.582 36.8178C162.58 35.3308 161.732 33.9052 160.224 32.8538C158.716 31.8023 156.672 31.2109 154.54 31.2092Z" fill="#3F3D56"/>
<path d="M15.4022 13.2614C13.6524 13.2614 11.942 12.8996 10.4871 12.2217C9.03223 11.5437 7.8983 10.5802 7.2287 9.45287C6.5591 8.32553 6.3839 7.08504 6.72526 5.88827C7.06662 4.6915 7.90921 3.59219 9.14647 2.72937C10.3837 1.86654 11.9601 1.27895 13.6762 1.0409C15.3923 0.802844 17.1712 0.925022 18.7877 1.39198C20.4043 1.85894 21.786 2.6497 22.7581 3.66427C23.7302 4.67885 24.2491 5.87167 24.2491 7.09189C24.2464 8.72758 23.3135 10.2958 21.6549 11.4524C19.9964 12.609 17.7477 13.2596 15.4022 13.2614ZM15.4022 1.48322C13.8115 1.48322 12.2565 1.81216 10.9339 2.42845C9.61132 3.04474 8.58047 3.92069 7.97174 4.94554C7.36302 5.97039 7.20375 7.09811 7.51407 8.18608C7.8244 9.27406 8.59039 10.2734 9.71517 11.0578C10.8399 11.8422 12.273 12.3764 13.8331 12.5928C15.3932 12.8092 17.0103 12.6981 18.4799 12.2736C19.9495 11.8491 21.2056 11.1302 22.0894 10.2079C22.9731 9.28555 23.4448 8.20118 23.4448 7.09189C23.4424 5.6049 22.5942 4.1793 21.0865 3.12784C19.5787 2.07638 17.5345 1.48492 15.4022 1.48322Z" fill="#3F3D56"/>
<path d="M56.7825 27.3601C55.0328 27.3601 53.3223 26.9983 51.8675 26.3204C50.4126 25.6425 49.2787 24.6789 48.6091 23.5516C47.9395 22.4243 47.7643 21.1838 48.1056 19.987C48.447 18.7902 49.2896 17.6909 50.5268 16.8281C51.7641 15.9653 53.3405 15.3777 55.0566 15.1396C56.7727 14.9016 58.5515 15.0237 60.1681 15.4907C61.7846 15.9577 63.1663 16.7484 64.1384 17.763C65.1105 18.7776 65.6294 19.9704 65.6294 21.1906C65.6268 22.8263 64.6938 24.3945 63.0353 25.5511C61.3768 26.7077 59.1281 27.3583 56.7825 27.3601ZM56.7825 15.5819C55.1919 15.5819 53.6369 15.9109 52.3143 16.5272C50.9917 17.1435 49.9608 18.0194 49.3521 19.0443C48.7434 20.0691 48.5841 21.1968 48.8944 22.2848C49.2048 23.3728 49.9707 24.3722 51.0955 25.1565C52.2203 25.9409 53.6534 26.4751 55.2135 26.6915C56.7736 26.9079 58.3907 26.7968 59.8603 26.3723C61.3299 25.9478 62.586 25.229 63.4697 24.3066C64.3535 23.3843 64.8252 22.2999 64.8252 21.1906C64.8227 19.7036 63.9746 18.278 62.4668 17.2266C60.9591 16.1751 58.9148 15.5836 56.7825 15.5819Z" fill="#3F3D56"/>
<path d="M180.276 56.4482C183.163 56.4482 185.504 54.816 185.504 52.8025C185.504 50.7891 183.163 49.1569 180.276 49.1569C177.389 49.1569 175.048 50.7891 175.048 52.8025C175.048 54.816 177.389 56.4482 180.276 56.4482Z" fill="#3F3D56"/>
<path d="M24.026 34.5312C26.9132 34.5312 29.2537 32.899 29.2537 30.8856C29.2537 28.8722 26.9132 27.24 24.026 27.24C21.1388 27.24 18.7983 28.8722 18.7983 30.8856C18.7983 32.899 21.1388 34.5312 24.026 34.5312Z" fill="#3F3D56"/>
<g opacity="0.1">
<path d="M28.2229 107.857C28.4216 107.828 28.6058 107.763 28.7563 107.669C28.9069 107.574 29.0182 107.453 29.0787 107.318C29.0941 107.265 29.0987 107.211 29.0925 107.157C29.0075 107.2 28.9216 107.242 28.838 107.287C28.5665 107.437 28.3548 107.633 28.2229 107.857Z" fill="black"/>
</g>
<path d="M20.5076 120.084L19.0322 88.9763" stroke="#0D6EFD" stroke-width="0.988338" stroke-miterlimit="10"/>
<path d="M19.0322 93.3778C22.5179 93.3778 25.3438 91.4071 25.3438 88.9763C25.3438 86.5454 22.5179 84.5748 19.0322 84.5748C15.5464 84.5748 12.7206 86.5454 12.7206 88.9763C12.7206 91.4071 15.5464 93.3778 19.0322 93.3778Z" fill="#0D6EFD"/>
<path d="M19.9416 108.149C19.9416 108.149 18.3993 94.653 0 96.6503L19.9416 108.149Z" fill="#0D6EFD"/>
</svg>
